<svg xmlns="http://www.w3.org/2000/svg" width="1200" height="420" viewBox="0 0 1200 420" role="img"><title>Yaswanth Akkireddy — neon AI engineering banner</title><defs><linearGradient id="sky"><stop stop-color="#061a2b"/><stop offset=".5" stop-color="#0b2439"/><stop offset="1" stop-color="#0f343f"/></linearGradient><linearGradient id="floor"><stop stop-color="#00bfff"/><stop offset=".6" stop-color="#63bfd5"/><stop offset="1" stop-color="#9ff5d5"/></linearGradient><linearGradient id="ink"><stop stop-color="#76faff"/><stop offset=".7" stop-color="#8bfad1"/><stop offset="1" stop-color="#b5fff0"/></linearGradient><filter id="glow" x="-50%" y="-80%" width="200%" height="260%"><feGaussianBlur stdDeviation="5" result="blur"/><feMerge><feMergeNode in="blur"/><feMergeNode in="SourceGraphic"/></feMerge></filter><filter id="soft"><feGaussianBlur stdDeviation="24"/></filter></defs><rect x="1" y="1" width="1198" height="418" rx="18" fill="url(#sky)" stroke="#4c98b7" stroke-opacity=".4"/><ellipse cx="408.00000000000006" cy="193.20000000000002" rx="312" ry="95" fill="#008dff" opacity=".12" filter="url(#soft)"/><ellipse cx="983.9999999999999" cy="260.4" rx="252" ry="95" fill="#6cebc6" opacity=".13" filter="url(#soft)"/><g fill="none" stroke="url(#floor)" stroke-width="1" opacity=".6"><path d="M492 306L0 420"/><path d="M502.8 306L60 420"/><path d="M513.6 306L120 420"/><path d="M524.4 306L180 420"/><path d="M535.2 306L240 420"/><path d="M546 306L300 420"/><path d="M556.8 306L360 420"/><path d="M567.6 306L420 420"/><path d="M578.4 306L480 420"/><path d="M589.2 306L540 420"/><path d="M600 306L600 420"/><path d="M610.8 306L660 420"/><path d="M621.6 306L720 420"/><path d="M632.4 306L780 420"/><path d="M643.2 306L840 420"/><path d="M654 306L900 420"/><path d="M664.8 306L960 420"/><path d="M675.6 306L1020 420"/><path d="M686.4 306L1080 420"/><path d="M697.2 306L1140 420"/><path d="M708 306L1200 420"/><path d="M0 309.42H1200"/><path d="M0 317.4H1200"/><path d="M0 328.8H1200"/><path d="M0 344.76H1200"/><path d="M0 364.14H1200"/><path d="M0 388.08H1200"/><path d="M0 415.44H1200"/></g><path d="M0 338H1200" stroke="#9ff5d5" stroke-opacity=".5"><animate attributeName="opacity" values=".2;.75;.2" dur="4s" repeatCount="indefinite"/></path><g transform="translate(122 288)"><g><animateTransform attributeName="transform" type="translate" values="0 0;0 -7;0 0" dur="7s" repeatCount="indefinite"/><ellipse rx="62.9" ry="14.8" fill="none" stroke="#9ff5d5" stroke-width="2.5" transform="rotate(-24)" filter="url(#glow)"/><circle r="37" fill="#17193d" stroke="#9ff5d5" stroke-width="2"/><path d="M-29.6 0Q0 -11.1 29.6 0M-24.05 16.650000000000002H24.05" fill="none" stroke="#9ff5d5" stroke-opacity=".4"/><ellipse rx="62.9" ry="14.8" fill="none" stroke="#9ff5d5" stroke-width="1.4" transform="rotate(-24)" stroke-dasharray="74 222"><animateTransform attributeName="transform" type="rotate" from="-24" to="336" dur="28s" repeatCount="indefinite"/></ellipse></g></g><g transform="translate(1084 82)"><g><animateTransform attributeName="transform" type="translate" values="0 0;0 -7;0 0" dur="7s" repeatCount="indefinite"/><ellipse rx="57.8" ry="13.600000000000001" fill="none" stroke="#86dcff" stroke-width="2.5" transform="rotate(-25)" filter="url(#glow)"/><circle r="34" fill="#17193d" stroke="#86dcff" stroke-width="2"/><path d="M-27.200000000000003 0Q0 -10.2 27.200000000000003 0M-22.1 15.3H22.1" fill="none" stroke="#86dcff" stroke-opacity=".4"/><ellipse rx="57.8" ry="13.600000000000001" fill="none" stroke="#86dcff" stroke-width="1.4" transform="rotate(-25)" stroke-dasharray="68 204"><animateTransform attributeName="transform" type="rotate" from="-25" to="335" dur="28s" repeatCount="indefinite"/></ellipse></g></g><g transform="translate(104 96)" fill="none" stroke="#9ff5d5" stroke-width="2.5" filter="url(#glow)"><animateTransform attributeName="transform" type="translate" values="104 96;104 87;104 96" dur="5s" repeatCount="indefinite"/><path d="M-20 12V-3Q-20 -22 0 -22Q20 -22 20 -3V12L10 7L0 13L-10 7Z"/><circle cx="-7" cy="-3" r="3" stroke="#7cffff"/><circle cx="7" cy="-3" r="3" stroke="#7cffff"/></g><circle cx="18" cy="25" r="1.3" fill="#dbf9ff"><animate attributeName="opacity" values=".15;.7;.15" dur="5s" begin="0s" repeatCount="indefinite"/></circle><circle cx="185" cy="86" r="1.3" fill="#dbf9ff"><animate attributeName="opacity" values=".15;.7;.15" dur="6s" begin="1s" repeatCount="indefinite"/></circle><circle cx="352" cy="147" r="1.3" fill="#dbf9ff"><animate attributeName="opacity" values=".15;.7;.15" dur="7s" begin="2s" repeatCount="indefinite"/></circle><circle cx="519" cy="208" r="1.3" fill="#dbf9ff"><animate attributeName="opacity" values=".15;.7;.15" dur="8s" begin="0s" repeatCount="indefinite"/></circle><circle cx="686" cy="269" r="1.3" fill="#dbf9ff"><animate attributeName="opacity" values=".15;.7;.15" dur="5s" begin="1s" repeatCount="indefinite"/></circle><circle cx="853" cy="65" r="1.3" fill="#dbf9ff"><animate attributeName="opacity" values=".15;.7;.15" dur="6s" begin="2s" repeatCount="indefinite"/></circle><circle cx="1020" cy="126" r="1.3" fill="#dbf9ff"><animate attributeName="opacity" values=".15;.7;.15" dur="7s" begin="0s" repeatCount="indefinite"/></circle><circle cx="23" cy="187" r="1.3" fill="#dbf9ff"><animate attributeName="opacity" values=".15;.7;.15" dur="8s" begin="1s" repeatCount="indefinite"/></circle><circle cx="190" cy="248" r="1.3" fill="#dbf9ff"><animate attributeName="opacity" values=".15;.7;.15" dur="5s" begin="2s" repeatCount="indefinite"/></circle><circle cx="357" cy="44" r="1.3" fill="#dbf9ff"><animate attributeName="opacity" values=".15;.7;.15" dur="6s" begin="0s" repeatCount="indefinite"/></circle><circle cx="524" cy="105" r="1.3" fill="#dbf9ff"><animate attributeName="opacity" values=".15;.7;.15" dur="7s" begin="1s" repeatCount="indefinite"/></circle><circle cx="691" cy="166" r="1.3" fill="#dbf9ff"><animate attributeName="opacity" values=".15;.7;.15" dur="8s" begin="2s" repeatCount="indefinite"/></circle><circle cx="858" cy="227" r="1.3" fill="#dbf9ff"><animate attributeName="opacity" values=".15;.7;.15" dur="5s" begin="0s" repeatCount="indefinite"/></circle><circle cx="1025" cy="288" r="1.3" fill="#dbf9ff"><animate attributeName="opacity" values=".15;.7;.15" dur="6s" begin="1s" repeatCount="indefinite"/></circle><circle cx="28" cy="84" r="1.3" fill="#dbf9ff"><animate attributeName="opacity" values=".15;.7;.15" dur="7s" begin="2s" repeatCount="indefinite"/></circle><circle cx="195" cy="145" r="1.3" fill="#dbf9ff"><animate attributeName="opacity" values=".15;.7;.15" dur="8s" begin="0s" repeatCount="indefinite"/></circle><g text-anchor="middle" font-family="Arial Black,Segoe UI,Arial,sans-serif" font-weight="900" letter-spacing="4" fill="url(#ink)" filter="url(#glow)"><text x="600" y="160" font-size="100">YASWANTH</text><text x="600" y="264" font-size="100">AKKIREDDY</text></g><path d="M252 101l5 -10 5 10 10 5 -10 5 -5 10 -5 -10 -10 -5Z" fill="none" stroke="#9cffff" stroke-width="2"/><g stroke="#9ff5d5" stroke-width="2" fill="none" opacity=".7"><path d="M1133 237l-12 8 12 8m18 -16 12 8 -12 8"/><path d="M1153 231l-8 27"/></g><text x="600" y="395" text-anchor="middle" font-family="ui-monospace,Consolas,monospace" font-size="18" letter-spacing="2" fill="#d3def4">GENERATIVE AI · AGENTIC SYSTEMS · RAG</text></svg>
